<svg id="S4.F2.sf1.1.pic1" height="611.31" overflow="visible" version="1.1" width="480.35"><g transform="translate(0,611.31) matrix(1 0 0 -1 0 0) translate(203.93,0) translate(0,600.35)" fill="#000000" stroke="#000000" stroke-width="0.4pt"><g fill="#F2F2FF"><path d="M 246.62 -301.8 L -29.53 -301.8 L -29.53 -462.32 L 246.62 -462.32 L 246.62 -301.8 Z"></path></g><path d="M 0 -10.96 C 0 -26.31 0 -34.98 0 -49.7" style="fill:none"></path><g transform="matrix(0.0 -1.0 1.0 0.0 0 -49.7)" stroke-dasharray="none" stroke-dashoffset="0.0pt" stroke-linecap="round" stroke-linejoin="round" stroke-width="0.32pt"><path d="M -1.66 2.21 C -1.52 1.38 0 0.14 0.42 0 C 0 -0.14 -1.52 -1.38 -1.66 -2.21" style="fill:none"></path></g><path d="M 0 -10.96 C 0 -59.79 -118.39 -1.5 -118.39 -49.7" style="fill:none"></path><g transform="matrix(0.0 -1.0 1.0 0.0 -118.39 -49.7)" stroke-dasharray="none" stroke-dashoffset="0.0pt" stroke-linecap="round" stroke-linejoin="round" stroke-width="0.32pt"><path d="M -1.66 2.21 C -1.52 1.38 0 0.14 0.42 0 C 0 -0.14 -1.52 -1.38 -1.66 -2.21" style="fill:none"></path></g><path d="M 0 -10.96 C 0 -59.79 118.39 -1.5 118.39 -49.7" style="fill:none"></path><g transform="matrix(0.0 -1.0 1.0 0.0 118.39 -49.7)" stroke-dasharray="none" stroke-dashoffset="0.0pt" stroke-linecap="round" stroke-linejoin="round" stroke-width="0.32pt"><path d="M -1.66 2.21 C -1.52 1.38 0 0.14 0.42 0 C 0 -0.14 -1.52 -1.38 -1.66 -2.21" style="fill:none"></path></g><path d="M 0 -172.37 L 0 -250.02" style="fill:none"></path><g transform="matrix(0.0 -1.0 1.0 0.0 0 -250.02)" stroke-dasharray="none" stroke-dashoffset="0.0pt" stroke-linecap="round" stroke-linejoin="round" stroke-width="0.32pt"><path d="M -1.66 2.21 C -1.52 1.38 0 0.14 0.42 0 C 0 -0.14 -1.52 -1.38 -1.66 -2.21" style="fill:none"></path></g><path d="M -137.8 -378.58 L -137.8 -328.95 M -137.8 -309.71 L -137.8 -279.52" style="fill:none"></path><g transform="matrix(0.0 1.0 -1.0 0.0 -137.8 -279.52)" stroke-dasharray="none" stroke-dashoffset="0.0pt" stroke-linecap="round" stroke-linejoin="round" stroke-width="0.32pt"><path d="M -1.66 2.21 C -1.52 1.38 0 0.14 0.42 0 C 0 -0.14 -1.52 -1.38 -1.66 -2.21" style="fill:none"></path></g><path d="M -137.8 -172.37 L -137.8 -250.02" style="fill:none"></path><g transform="matrix(0.0 -1.0 1.0 0.0 -137.8 -250.02)" stroke-dasharray="none" stroke-dashoffset="0.0pt" stroke-linecap="round" stroke-linejoin="round" stroke-width="0.32pt"><path d="M -1.66 2.21 C -1.52 1.38 0 0.14 0.42 0 C 0 -0.14 -1.52 -1.38 -1.66 -2.21" style="fill:none"></path></g><path d="M -123.68 -264.77 L -84.95 -264.77" style="fill:none"></path><g transform="matrix(1.0 0.0 0.0 1.0 -84.95 -264.77)" stroke-dasharray="none" stroke-dashoffset="0.0pt" stroke-linecap="round" stroke-linejoin="round" stroke-width="0.32pt"><path d="M -1.66 2.21 C -1.52 1.38 0 0.14 0.42 0 C 0 -0.14 -1.52 -1.38 -1.66 -2.21" style="fill:none"></path></g><path d="M 217.09 -114.99 L 217.09 -202.91" style="fill:none"></path><g transform="matrix(0.0 -1.0 1.0 0.0 217.09 -202.91)" stroke-dasharray="none" stroke-dashoffset="0.0pt" stroke-linecap="round" stroke-linejoin="round" stroke-width="0.32pt"><path d="M -1.66 2.21 C -1.52 1.38 0 0.14 0.42 0 C 0 -0.14 -1.52 -1.38 -1.66 -2.21" style="fill:none"></path></g><path d="M 195.1 -217.66 L 202.34 -217.66" style="fill:none"></path><g transform="matrix(1.0 0.0 0.0 1.0 202.34 -217.66)" stroke-dasharray="none" stroke-dashoffset="0.0pt" stroke-linecap="round" stroke-linejoin="round" stroke-width="0.32pt"><path d="M -1.66 2.21 C -1.52 1.38 0 0.14 0.42 0 C 0 -0.14 -1.52 -1.38 -1.66 -2.21" style="fill:none"></path></g><path d="M 217.09 -231.77 L 217.09 -250.82" style="fill:none"></path><g transform="matrix(0.0 -1.0 1.0 0.0 217.09 -250.82)" stroke-dasharray="none" stroke-dashoffset="0.0pt" stroke-linecap="round" stroke-linejoin="round" stroke-width="0.32pt"><path d="M -1.66 2.21 C -1.52 1.38 0 0.14 0.42 0 C 0 -0.14 -1.52 -1.38 -1.66 -2.21" style="fill:none"></path></g><path d="M 205.39 -263.16 L 157.9 -263.16 L 157.9 -321.48 L 157.9 -577.79" style="fill:none"></path><g transform="matrix(0.0 -1.0 1.0 0.0 157.9 -577.79)" stroke-dasharray="none" stroke-dashoffset="0.0pt" stroke-linecap="round" stroke-linejoin="round" stroke-width="0.32pt"><path d="M -1.66 2.21 C -1.52 1.38 0 0.14 0.42 0 C 0 -0.14 -1.52 -1.38 -1.66 -2.21" style="fill:none"></path></g><path d="M 11.03 -261.69 L 59.19 -261.69 L 59.19 -321.48 L 59.19 -422.61" style="fill:none"></path><g transform="matrix(0.0 -1.0 1.0 0.0 59.19 -422.61)" stroke-dasharray="none" stroke-dashoffset="0.0pt" stroke-linecap="round" stroke-linejoin="round" stroke-width="0.32pt"><path d="M -1.66 2.21 C -1.52 1.38 0 0.14 0.42 0 C 0 -0.14 -1.52 -1.38 -1.66 -2.21" style="fill:none"></path></g><path d="M -59.42 -264.77 L -68.9 -264.77 L -68.9 -331.17 L 9.21 -331.17" style="fill:none"></path><g transform="matrix(1.0 0.0 0.0 1.0 9.21 -331.17)" stroke-dasharray="none" stroke-dashoffset="0.0pt" stroke-linecap="round" stroke-linejoin="round" stroke-width="0.32pt"><path d="M -1.66 2.21 C -1.52 1.38 0 0.14 0.42 0 C 0 -0.14 -1.52 -1.38 -1.66 -2.21" style="fill:none"></path></g><path d="M -68.9 -331.17 L -68.9 -362.37 L 9.21 -362.37" style="fill:none"></path><g transform="matrix(1.0 0.0 0.0 1.0 9.21 -362.37)" stroke-dasharray="none" stroke-dashoffset="0.0pt" stroke-linecap="round" stroke-linejoin="round" stroke-width="0.32pt"><path d="M -1.66 2.21 C -1.52 1.38 0 0.14 0.42 0 C 0 -0.14 -1.52 -1.38 -1.66 -2.21" style="fill:none"></path></g><path d="M -68.9 -331.17 L -68.9 -432.94 L 9.21 -432.94" style="fill:none"></path><g transform="matrix(1.0 0.0 0.0 1.0 9.21 -432.94)" stroke-dasharray="none" stroke-dashoffset="0.0pt" stroke-linecap="round" stroke-linejoin="round" stroke-width="0.32pt"><path d="M -1.66 2.21 C -1.52 1.38 0 0.14 0.42 0 C 0 -0.14 -1.52 -1.38 -1.66 -2.21" style="fill:none"></path></g><path d="M -68.9 -331.17 L -68.9 -491.99 L 97.93 -491.99" style="fill:none"></path><g transform="matrix(1.0 0.0 0.0 1.0 97.93 -491.99)" stroke-dasharray="none" stroke-dashoffset="0.0pt" stroke-linecap="round" stroke-linejoin="round" stroke-width="0.32pt"><path d="M -1.66 2.21 C -1.52 1.38 0 0.14 0.42 0 C 0 -0.14 -1.52 -1.38 -1.66 -2.21" style="fill:none"></path></g><g fill="#FF9DD7"><path d="M 51.18 10.68 L -51.18 10.68 C -55.53 10.68 -59.06 7.16 -59.06 2.81 L -59.06 -2.81 C -59.06 -7.16 -55.53 -10.68 -51.18 -10.68 L 51.18 -10.68 C 55.53 -10.68 59.06 -7.16 59.06 -2.81 L 59.06 2.81 C 59.06 7.16 55.53 10.68 51.18 10.68 Z M -59.06 -10.68"></path></g><g transform="matrix(1.0 0.0 0.0 1.0 -24.21 -3.38)" fill="#000000" stroke="#000000"><foreignObject width="48.43" height="12.15" transform="matrix(1 0 0 -1 0 16.6)" overflow="visible"><span id="S4.F2.sf1.1.pic1.9.9.9.1.1">Caption</span></foreignObject></g> <g fill="#CCFF99"><path d="M 51.18 -50.61 L -51.18 -50.61 C -55.53 -50.61 -59.06 -54.13 -59.06 -58.48 L -59.06 -65.8 C -59.06 -70.14 -55.53 -73.67 -51.18 -73.67 L 51.18 -73.67 C 55.53 -73.67 59.06 -70.14 59.06 -65.8 L 59.06 -58.48 C 59.06 -54.13 55.53 -50.61 51.18 -50.61 Z M -59.06 -73.67"></path></g><g transform="matrix(1.0 0.0 0.0 1.0 -33.54 -65.6)" fill="#000000" stroke="#000000"><foreignObject width="67.07" height="13.84" transform="matrix(1 0 0 -1 0 16.6)" overflow="visible"><span id="S4.F2.sf1.1.pic1.10.10.10.1.1">CLIP-L/14</span></foreignObject></g> <g fill="#96F399"><path d="M -67.21 -50.61 L -169.57 -50.61 C -173.92 -50.61 -177.44 -54.13 -177.44 -58.48 L -177.44 -65.8 C -177.44 -70.14 -173.92 -73.67 -169.57 -73.67 L -67.21 -73.67 C -62.86 -73.67 -59.33 -70.14 -59.33 -65.8 L -59.33 -58.48 C -59.33 -54.13 -62.86 -50.61 -67.21 -50.61 Z M -177.44 -73.67"></path></g><g transform="matrix(1.0 0.0 0.0 1.0 -153.03 -65.6)" fill="#000000" stroke="#000000"><foreignObject width="69.28" height="13.84" transform="matrix(1 0 0 -1 0 16.6)" overflow="visible"><span id="S4.F2.sf1.1.pic1.11.11.11.1.1">CLIP-G/14</span></foreignObject></g> <g fill="#D2FFB4"><path d="M 169.57 -50.61 L 67.21 -50.61 C 62.86 -50.61 59.33 -54.13 59.33 -58.48 L 59.33 -65.8 C 59.33 -70.14 62.86 -73.67 67.21 -73.67 L 169.57 -73.67 C 173.92 -73.67 177.44 -70.14 177.44 -65.8 L 177.44 -58.48 C 177.44 -54.13 173.92 -50.61 169.57 -50.61 Z M 59.33 -73.67"></path></g><g transform="matrix(1.0 0.0 0.0 1.0 89.46 -65.6)" fill="#000000" stroke="#000000"><foreignObject width="57.85" height="13.84" transform="matrix(1 0 0 -1 0 16.6)" overflow="visible"><span id="S4.F2.sf1.1.pic1.12.12.12.1.1">T5 XXL</span></foreignObject></g> <g fill="#D2FFB4"><path d="M 0 -172.37 L 0 -133 L 59.06 -133 L 59.06 -192.06 L 0 -192.06 L 0 -172.37 Z"></path></g><g fill="#96F399"><path d="M 0 -162.53 L -59.06 -162.53 L -59.06 -142.84 L 0 -142.84 L 0 -162.53 Z"></path></g><g fill="#CCFF99"><path d="M 0 -142.84 L -59.06 -142.84 L -59.06 -133 L 0 -133 L 0 -142.84 Z"></path></g><g fill="#E6E6E6"><path d="M 0 -162.53 L -59.06 -162.53 L -59.06 -192.06 L 0 -192.06 L 0 -162.53 Z"></path></g><path d="M 118.39 -73.95 C 118.39 -120.43 85.85 -162.53 40.01 -162.53" style="fill:none"></path><g transform="matrix(-1.0 0.0 0.0 -1.0 40.01 -162.53)" stroke-dasharray="none" stroke-dashoffset="0.0pt" stroke-linecap="round" stroke-linejoin="round" stroke-width="0.32pt"><path d="M -1.66 2.21 C -1.52 1.38 0 0.14 0.42 0 C 0 -0.14 -1.52 -1.38 -1.66 -2.21" style="fill:none"></path></g><path d="M 0 -73.95 C 0 -101.46 -29.53 -110.4 -29.53 -137.29" style="fill:none"></path><g transform="matrix(0.0 -1.0 1.0 0.0 -29.53 -137.29)" stroke-dasharray="none" stroke-dashoffset="0.0pt" stroke-linecap="round" stroke-linejoin="round" stroke-width="0.32pt"><path d="M -1.66 2.21 C -1.52 1.38 0 0.14 0.42 0 C 0 -0.14 -1.52 -1.38 -1.66 -2.21" style="fill:none"></path></g><path d="M -118.39 -73.95 C -118.39 -114.42 -91.65 -152.69 -51.82 -152.69" style="fill:none"></path><g transform="matrix(1.0 0.0 0.0 1.0 -51.82 -152.69)" stroke-dasharray="none" stroke-dashoffset="0.0pt" stroke-linecap="round" stroke-linejoin="round" stroke-width="0.32pt"><path d="M -1.66 2.21 C -1.52 1.38 0 0.14 0.42 0 C 0 -0.14 -1.52 -1.38 -1.66 -2.21" style="fill:none"></path></g><g fill="#CCFF99"><path d="M -137.8 -152.69 L -129.92 -152.69 L -129.92 -133 L -145.67 -133 L -145.67 -152.69 Z"></path></g><g fill="#96F399"><path d="M -137.8 -152.69 L -129.92 -152.69 L -129.92 -192.06 L -145.67 -192.06 L -145.67 -152.69 Z"></path></g><g transform="matrix(0.0 1.0 -1.0 0.0 -148.74 -183)" fill="#000000" stroke="#000000"><foreignObject width="40.55" height="9.61" transform="matrix(1 0 0 -1 0 16.6)" overflow="visible"><span id="S4.F2.sf1.1.pic1.13.13.13.1.1">Pooled</span></foreignObject></g> <path d="M 0 -73.95 C 0 -134.25 -137.8 -82.54 -137.8 -142.21" style="fill:none"></path><g transform="matrix(0.0 -1.0 1.0 0.0 -137.8 -142.21)" stroke-dasharray="none" stroke-dashoffset="0.0pt" stroke-linecap="round" stroke-linejoin="round" stroke-width="0.32pt"><path d="M -1.66 2.21 C -1.52 1.38 0 0.14 0.42 0 C 0 -0.14 -1.52 -1.38 -1.66 -2.21" style="fill:none"></path></g><path d="M -118.39 -73.95 C -118.39 -113.09 -98.65 -172.37 -137.16 -172.37" style="fill:none"></path><g transform="matrix(-1.0 0.0 0.0 -1.0 -137.16 -172.37)" stroke-dasharray="none" stroke-dashoffset="0.0pt" stroke-linecap="round" stroke-linejoin="round" stroke-width="0.32pt"><path d="M -1.66 2.21 C -1.52 1.38 0 0.14 0.42 0 C 0 -0.14 -1.52 -1.38 -1.66 -2.21" style="fill:none"></path></g><g fill="#E6E6FF"><path d="M 51.18 -212.02 L -51.18 -212.02 C -55.53 -212.02 -59.06 -215.54 -59.06 -219.89 L -59.06 -222.82 C -59.06 -227.17 -55.53 -230.7 -51.18 -230.7 L 51.18 -230.7 C 55.53 -230.7 59.06 -227.17 59.06 -222.82 L 59.06 -219.89 C 59.06 -215.54 55.53 -212.02 51.18 -212.02 Z M -59.06 -230.7"></path></g><g transform="matrix(1.0 0.0 0.0 1.0 -19.33 -226.08)" fill="#000000" stroke="#000000"><foreignObject width="38.67" height="9.46" transform="matrix(1 0 0 -1 0 16.6)" overflow="visible"><span id="S4.F2.sf1.1.pic1.14.14.14.1.1">Linear</span></foreignObject></g> <g fill="#FF98FF"><path d="M 10.76 -261.69 C 10.76 -255.75 5.94 -250.94 0 -250.94 C -5.94 -250.94 -10.76 -255.75 -10.76 -261.69 C -10.76 -267.63 -5.94 -272.45 0 -272.45 C 5.94 -272.45 10.76 -267.63 10.76 -261.69 Z M 0 -261.69"></path></g><g transform="matrix(1.0 0.0 0.0 1.0 -2.99 -264.67)" fill="#000000" stroke="#000000"><foreignObject width="5.99" height="5.96" transform="matrix(1 0 0 -1 0 16.6)" overflow="visible"><math xmlns="http://www.w3.org/1998/Math/MathML" display="inline" data-latex="c"><semantics id="S4.F2.sf1.1.pic1.1.1.1.1.1.1.1.1.1.1.1.1.1.1.1.1.1.1.1.1.1.1.1.m1.1a"><mi id="S4.F2.sf1.1.pic1.1.1.1.1.1.1.1.1.1.1.1.1.1.1.1.1.1.1.1.1.1.1.1.m1.1.1" xref="S4.F2.sf1.1.pic1.1.1.1.1.1.1.1.1.1.1.1.1.1.1.1.1.1.1.1.1.1.1.1.m1.1.1.cmml">c</mi> <annotation-xml encoding="MathML-Content" id="S4.F2.sf1.1.pic1.1.1.1.1.1.1.1.1.1.1.1.1.1.1.1.1.1.1.1.1.1.1.1.m1.1b"><ci id="S4.F2.sf1.1.pic1.1.1.1.1.1.1.1.1.1.1.1.1.1.1.1.1.1.1.1.1.1.1.1.m1.1.1.cmml" xref="S4.F2.sf1.1.pic1.1.1.1.1.1.1.1.1.1.1.1.1.1.1.1.1.1.1.1.1.1.1.1.m1.1.1">𝑐</ci></annotation-xml> <annotation encoding="application/x-tex" id="S4.F2.sf1.1.pic1.1.1.1.1.1.1.1.1.1.1.1.1.1.1.1.1.1.1.1.1.1.1.1.m1.1c">c</annotation></semantics></math></foreignObject></g> <g fill="#E6E6FF"><path d="M -86.61 -212.02 L -188.98 -212.02 C -193.33 -212.02 -196.85 -215.54 -196.85 -219.89 L -196.85 -222.82 C -196.85 -227.17 -193.33 -230.7 -188.98 -230.7 L -86.61 -230.7 C -82.27 -230.7 -78.74 -227.17 -78.74 -222.82 L -78.74 -219.89 C -78.74 -215.54 -82.27 -212.02 -86.61 -212.02 Z M -196.85 -230.7"></path></g><g transform="matrix(1.0 0.0 0.0 1.0 -153.17 -226.08)" fill="#000000" stroke="#000000"><foreignObject width="30.75" height="9.46" transform="matrix(1 0 0 -1 0 16.6)" overflow="visible"><span id="S4.F2.sf1.1.pic1.15.15.15.1.1">MLP</span></foreignObject></g> <g fill="#E6E6FF"><path d="M -86.61 -309.99 L -188.98 -309.99 C -193.33 -309.99 -196.85 -313.52 -196.85 -317.86 L -196.85 -320.8 C -196.85 -325.14 -193.33 -328.67 -188.98 -328.67 L -86.61 -328.67 C -82.27 -328.67 -78.74 -325.14 -78.74 -320.8 L -78.74 -317.86 C -78.74 -313.52 -82.27 -309.99 -86.61 -309.99 Z M -196.85 -328.67"></path></g><g transform="matrix(1.0 0.0 0.0 1.0 -153.17 -324.06)" fill="#000000" stroke="#000000"><foreignObject width="30.75" height="9.46" transform="matrix(1 0 0 -1 0 16.6)" overflow="visible"><span id="S4.F2.sf1.1.pic1.16.16.16.1.1">MLP</span></foreignObject></g> <g fill="#E6FFE6"><path d="M -79.81 -337.1 L -195.78 -337.1 C -200.13 -337.1 -203.66 -340.62 -203.66 -344.97 L -203.66 -350.75 C -203.66 -355.1 -200.13 -358.62 -195.78 -358.62 L -79.81 -358.62 C -75.46 -358.62 -71.94 -355.1 -71.94 -350.75 L -71.94 -344.97 C -71.94 -340.62 -75.46 -337.1 -79.81 -337.1 Z M -203.66 -358.62"></path></g><g transform="matrix(1.0 0.0 0.0 1.0 -199.04 -351.32)" fill="#000000" stroke="#000000"><foreignObject width="122.5" height="12.3" transform="matrix(1 0 0 -1 0 16.6)" overflow="visible"><span id="S4.F2.sf1.1.pic1.17.17.17.1.1">Sinusoidal Encoding</span></foreignObject></g> <g fill="#FF9DD7"><path d="M -86.61 -378.86 L -188.98 -378.86 C -193.33 -378.86 -196.85 -382.38 -196.85 -386.73 L -196.85 -392.35 C -196.85 -396.7 -193.33 -400.23 -188.98 -400.23 L -86.61 -400.23 C -82.27 -400.23 -78.74 -396.7 -78.74 -392.35 L -78.74 -386.73 C -78.74 -382.38 -82.27 -378.86 -86.61 -378.86 Z M -196.85 -400.23"></path></g><g transform="matrix(1.0 0.0 0.0 1.0 -165.89 -392.93)" fill="#000000" stroke="#000000"><foreignObject width="56.19" height="12.15" transform="matrix(1 0 0 -1 0 16.6)" overflow="visible"><span id="S4.F2.sf1.1.pic1.18.18.18.1.1">Timestep</span></foreignObject></g> <g fill="#FFE6E6"><path d="M -123.96 -264.77 C -123.96 -257.13 -130.15 -250.94 -137.8 -250.94 C -145.44 -250.94 -151.63 -257.13 -151.63 -264.77 C -151.63 -272.41 -145.44 -278.61 -137.8 -278.61 C -130.15 -278.61 -123.96 -272.41 -123.96 -264.77 Z M -137.8 -264.77"></path></g><g transform="matrix(1.0 0.0 0.0 1.0 -143.18 -268.23)" fill="#000000" stroke="#000000"><foreignObject width="10.76" height="9.22" transform="matrix(1 0 0 -1 0 16.6)" overflow="visible"><math xmlns="http://www.w3.org/1998/Math/MathML" display="inline" data-latex="+"><semantics id="S4.F2.sf1.1.pic1.2.2.2.2.2.2.2.2.2.2.2.2.2.1.1.1.1.1.1.1.1.1.1.1.m1.1a"><mo id="S4.F2.sf1.1.pic1.2.2.2.2.2.2.2.2.2.2.2.2.2.1.1.1.1.1.1.1.1.1.1.1.m1.1.1" xref="S4.F2.sf1.1.pic1.2.2.2.2.2.2.2.2.2.2.2.2.2.1.1.1.1.1.1.1.1.1.1.1.m1.1.1.cmml">+</mo> <annotation encoding="application/x-tex" id="S4.F2.sf1.1.pic1.2.2.2.2.2.2.2.2.2.2.2.2.2.1.1.1.1.1.1.1.1.1.1.1.m1.1c">+</annotation></semantics></math></foreignObject></g> <g fill="#FF98FF"><path d="M -59.7 -264.77 C -59.7 -258.05 -65.15 -252.6 -71.87 -252.6 C -78.59 -252.6 -84.03 -258.05 -84.03 -264.77 C -84.03 -271.49 -78.59 -276.94 -71.87 -276.94 C -65.15 -276.94 -59.7 -271.49 -59.7 -264.77 Z M -71.87 -264.77"></path></g><g transform="matrix(1.0 0.0 0.0 1.0 -75.52 -266.41)" fill="#000000" stroke="#000000"><foreignObject width="7.3" height="8.65" transform="matrix(1 0 0 -1 0 16.6)" overflow="visible"><span id="S4.F2.sf1.1.pic1.19.19.19.1.1">y</span></foreignObject></g> <g fill="#FF9DD7"><path d="M 268.27 -95.88 L 165.91 -95.88 C 161.56 -95.88 158.03 -99.41 158.03 -103.76 L 158.03 -106.84 C 158.03 -111.19 161.56 -114.72 165.91 -114.72 L 268.27 -114.72 C 272.62 -114.72 276.14 -111.19 276.14 -106.84 L 276.14 -103.76 C 276.14 -99.41 272.62 -95.88 268.27 -95.88 Z M 158.03 -114.72"></path></g><g transform="matrix(1.0 0.0 0.0 1.0 174.67 -110.1)" fill="#000000" stroke="#000000"><foreignObject width="84.83" height="9.61" transform="matrix(1 0 0 -1 0 16.6)" overflow="visible"><span id="S4.F2.sf1.1.pic1.20.20.20.1.1">Noised Latent</span></foreignObject></g> <g fill="#E6FFE6"><path d="M 268.27 -134.96 L 165.91 -134.96 C 161.56 -134.96 158.03 -138.48 158.03 -142.83 L 158.03 -148.6 C 158.03 -152.95 161.56 -156.48 165.91 -156.48 L 268.27 -156.48 C 272.62 -156.48 276.14 -152.95 276.14 -148.6 L 276.14 -142.83 C 276.14 -138.48 272.62 -134.96 268.27 -134.96 Z M 158.03 -156.48"></path></g><g transform="matrix(1.0 0.0 0.0 1.0 190.47 -149.18)" fill="#000000" stroke="#000000"><foreignObject width="53.62" height="12.3" transform="matrix(1 0 0 -1 0 16.6)" overflow="visible"><span id="S4.F2.sf1.1.pic1.21.21.21.1.1">Patching</span></foreignObject></g> <g fill="#E6E6FF"><path d="M 268.27 -164.91 L 165.91 -164.91 C 161.56 -164.91 158.03 -168.43 158.03 -172.78 L 158.03 -175.71 C 158.03 -180.06 161.56 -183.59 165.91 -183.59 L 268.27 -183.59 C 272.62 -183.59 276.14 -180.06 276.14 -175.71 L 276.14 -172.78 C 276.14 -168.43 272.62 -164.91 268.27 -164.91 Z M 158.03 -183.59"></path></g><g transform="matrix(1.0 0.0 0.0 1.0 197.76 -178.97)" fill="#000000" stroke="#000000"><foreignObject width="38.67" height="9.46" transform="matrix(1 0 0 -1 0 16.6)" overflow="visible"><span id="S4.F2.sf1.1.pic1.22.22.22.1.1">Linear</span></foreignObject></g> <g fill="#FFE6E6"><path d="M 230.93 -217.66 C 230.93 -210.02 224.73 -203.82 217.09 -203.82 C 209.45 -203.82 203.25 -210.02 203.25 -217.66 C 203.25 -225.3 209.45 -231.5 217.09 -231.5 C 224.73 -231.5 230.93 -225.3 230.93 -217.66 Z M 217.09 -217.66"></path></g><g transform="matrix(1.0 0.0 0.0 1.0 211.71 -221.12)" fill="#000000" stroke="#000000"><foreignObject width="10.76" height="9.22" transform="matrix(1 0 0 -1 0 16.6)" overflow="visible"><math xmlns="http://www.w3.org/1998/Math/MathML" display="inline" data-latex="+"><semantics id="S4.F2.sf1.1.pic1.3.3.3.3.3.3.3.3.3.3.3.3.3.2.1.1.1.1.1.1.1.1.1.1.1.m1.1a"><mo id="S4.F2.sf1.1.pic1.3.3.3.3.3.3.3.3.3.3.3.3.3.2.1.1.1.1.1.1.1.1.1.1.1.m1.1.1" xref="S4.F2.sf1.1.pic1.3.3.3.3.3.3.3.3.3.3.3.3.3.2.1.1.1.1.1.1.1.1.1.1.1.m1.1.1.cmml">+</mo> <annotation encoding="application/x-tex" id="S4.F2.sf1.1.pic1.3.3.3.3.3.3.3.3.3.3.3.3.3.2.1.1.1.1.1.1.1.1.1.1.1.m1.1c">+</annotation></semantics></math></foreignObject></g> <g fill="#E6E6FF"><path d="M 186.95 -198.16 L 84.59 -198.16 C 80.24 -198.16 76.71 -201.68 76.71 -206.03 L 76.71 -229.29 C 76.71 -233.64 80.24 -237.16 84.59 -237.16 L 186.95 -237.16 C 191.3 -237.16 194.82 -233.64 194.82 -229.29 L 194.82 -206.03 C 194.82 -201.68 191.3 -198.16 186.95 -198.16 Z M 76.71 -237.16"></path></g><g transform="matrix(1.0 0.0 0.0 1.0 101.46 -232.55)" fill="#000000" stroke="#000000"><g transform="matrix(1 0 0 -1 0 23.63)"><g transform="matrix(1 0 0 1 0 17.48)"><g transform="matrix(1 0 0 -1 4.38 0)"><g transform="matrix(1 0 0 -1 0 12.675)"><g transform="matrix(1 0 0 1 0 17.48)"><g transform="matrix(1 0 0 -1 0 0)"><text transform="matrix(1 0 0 -1 0 0)">Positional</text></g></g></g></g></g> <g transform="matrix(1 0 0 1 0 27.09)"><g transform="matrix(1 0 0 -1 0 0)"><text transform="matrix(1 0 0 -1 0 0)">Embedding</text></g></g></g></g> <g fill="#FF98FF"><path d="M 228.51 -263.16 C 228.51 -256.85 223.4 -251.74 217.09 -251.74 C 210.78 -251.74 205.67 -256.85 205.67 -263.16 C 205.67 -269.47 210.78 -274.58 217.09 -274.58 C 223.4 -274.58 228.51 -269.47 228.51 -263.16 Z M 217.09 -263.16"></path></g><g transform="matrix(1.0 0.0 0.0 1.0 213.13 -266.14)" fill="#000000" stroke="#000000"><foreignObject width="7.91" height="5.96" transform="matrix(1 0 0 -1 0 16.6)" overflow="visible"><math xmlns="http://www.w3.org/1998/Math/MathML" display="inline" data-latex="x"><semantics id="S4.F2.sf1.1.pic1.4.4.4.4.4.4.4.4.4.4.4.4.4.3.2.1.1.1.1.1.1.1.1.1.1.m1.1a"><mi id="S4.F2.sf1.1.pic1.4.4.4.4.4.4.4.4.4.4.4.4.4.3.2.1.1.1.1.1.1.1.1.1.1.m1.1.1" xref="S4.F2.sf1.1.pic1.4.4.4.4.4.4.4.4.4.4.4.4.4.3.2.1.1.1.1.1.1.1.1.1.1.m1.1.1.cmml">x</mi> <annotation-xml encoding="MathML-Content" id="S4.F2.sf1.1.pic1.4.4.4.4.4.4.4.4.4.4.4.4.4.3.2.1.1.1.1.1.1.1.1.1.1.m1.1b"><ci id="S4.F2.sf1.1.pic1.4.4.4.4.4.4.4.4.4.4.4.4.4.3.2.1.1.1.1.1.1.1.1.1.1.m1.1.1.cmml" xref="S4.F2.sf1.1.pic1.4.4.4.4.4.4.4.4.4.4.4.4.4.3.2.1.1.1.1.1.1.1.1.1.1.m1.1.1">𝑥</ci></annotation-xml> <annotation encoding="application/x-tex" id="S4.F2.sf1.1.pic1.4.4.4.4.4.4.4.4.4.4.4.4.4.3.2.1.1.1.1.1.1.1.1.1.1.m1.1c">x</annotation></semantics></math></foreignObject></g> <g fill="#E6E6FF"><path d="M 199.1 -321.76 L 17.99 -321.76 C 13.64 -321.76 10.12 -325.28 10.12 -329.63 L 10.12 -332.72 C 10.12 -337.06 13.64 -340.59 17.99 -340.59 L 199.1 -340.59 C 203.44 -340.59 206.97 -337.06 206.97 -332.72 L 206.97 -329.63 C 206.97 -325.28 203.44 -321.76 199.1 -321.76 Z M 10.12 -340.59"></path></g><g transform="matrix(1.0 0.0 0.0 1.0 56.27 -335.98)" fill="#000000" stroke="#000000"><foreignObject width="59" height="9.46" transform="matrix(1 0 0 -1 0 16.6)" overflow="visible"><em id="S4.F2.sf1.1.pic1.23.23.23.1.1">MM-DiT</em> <span id="S4.F2.sf1.1.pic1.24.24.24.2.2">-Block 1</span></foreignObject></g> <g fill="#E6E6FF"><path d="M 199.1 -352.95 L 17.99 -352.95 C 13.64 -352.95 10.12 -356.48 10.12 -360.83 L 10.12 -363.91 C 10.12 -368.26 13.64 -371.79 17.99 -371.79 L 199.1 -371.79 C 203.44 -371.79 206.97 -368.26 206.97 -363.91 L 206.97 -360.83 C 206.97 -356.48 203.44 -352.95 199.1 -352.95 Z M 10.12 -371.79"></path></g><g transform="matrix(1.0 0.0 0.0 1.0 56.27 -367.18)" fill="#000000" stroke="#000000"><foreignObject width="59" height="9.46" transform="matrix(1 0 0 -1 0 16.6)" overflow="visible"><em id="S4.F2.sf1.1.pic1.25.25.25.1.1">MM-DiT</em> <span id="S4.F2.sf1.1.pic1.26.26.26.2.2">-Block 2</span></foreignObject></g> <g transform="matrix(1.0 0.0 0.0 1.0 103.36 -402.39)" fill="#000000" stroke="#000000"><foreignObject width="10.38" height="12.45" transform="matrix(1 0 0 -1 0 16.6)" overflow="visible"><math xmlns="http://www.w3.org/1998/Math/MathML" display="inline" data-latex="\ldots"><semantics id="S4.F2.sf1.1.pic1.5.5.5.5.5.5.5.5.5.5.5.5.5.4.3.1.1.1.1.1.1.1.1.1.1.m1.1a"><mi mathvariant="normal" id="S4.F2.sf1.1.pic1.5.5.5.5.5.5.5.5.5.5.5.5.5.4.3.1.1.1.1.1.1.1.1.1.1.m1.1.1" xref="S4.F2.sf1.1.pic1.5.5.5.5.5.5.5.5.5.5.5.5.5.4.3.1.1.1.1.1.1.1.1.1.1.m1.1.1.cmml">…</mi> <annotation-xml encoding="MathML-Content" id="S4.F2.sf1.1.pic1.5.5.5.5.5.5.5.5.5.5.5.5.5.4.3.1.1.1.1.1.1.1.1.1.1.m1.1b"><ci id="S4.F2.sf1.1.pic1.5.5.5.5.5.5.5.5.5.5.5.5.5.4.3.1.1.1.1.1.1.1.1.1.1.m1.1.1.cmml" xref="S4.F2.sf1.1.pic1.5.5.5.5.5.5.5.5.5.5.5.5.5.4.3.1.1.1.1.1.1.1.1.1.1.m1.1.1">…</ci></annotation-xml> <annotation encoding="application/x-tex" id="S4.F2.sf1.1.pic1.5.5.5.5.5.5.5.5.5.5.5.5.5.4.3.1.1.1.1.1.1.1.1.1.1.m1.1c">\ldots</annotation></semantics></math></foreignObject></g> <g fill="#E6E6FF"><path d="M 199.1 -423.52 L 17.99 -423.52 C 13.64 -423.52 10.12 -427.05 10.12 -431.4 L 10.12 -434.48 C 10.12 -438.83 13.64 -442.35 17.99 -442.35 L 199.1 -442.35 C 203.44 -442.35 206.97 -438.83 206.97 -434.48 L 206.97 -431.4 C 206.97 -427.05 203.44 -423.52 199.1 -423.52 Z M 10.12 -442.35"></path></g><g transform="matrix(1.0 0.0 0.0 1.0 56.13 -437.74)" fill="#000000" stroke="#000000"><foreignObject width="59" height="9.46" transform="matrix(1 0 0 -1 0 16.6)" overflow="visible"><em id="S4.F2.sf1.1.pic1.27.27.27.2.2">MM-DiT</em> <span id="S4.F2.sf1.1.pic1.6.6.6.6.6.6.6.6.6.6.6.6.6.5.4.2.1.1.1.1.1.1.1.1.1.1.1.1">-Block <math xmlns="http://www.w3.org/1998/Math/MathML" display="inline" data-latex="d"><semantics id="S4.F2.sf1.1.pic1.6.6.6.6.6.6.6.6.6.6.6.6.6.5.4.2.1.1.1.1.1.1.1.1.1.1.1.1.m1.1a"><mi id="S4.F2.sf1.1.pic1.6.6.6.6.6.6.6.6.6.6.6.6.6.5.4.2.1.1.1.1.1.1.1.1.1.1.1.1.m1.1.1" xref="S4.F2.sf1.1.pic1.6.6.6.6.6.6.6.6.6.6.6.6.6.5.4.2.1.1.1.1.1.1.1.1.1.1.1.1.m1.1.1.cmml">d</mi> <annotation-xml encoding="MathML-Content" id="S4.F2.sf1.1.pic1.6.6.6.6.6.6.6.6.6.6.6.6.6.5.4.2.1.1.1.1.1.1.1.1.1.1.1.1.m1.1b"><ci id="S4.F2.sf1.1.pic1.6.6.6.6.6.6.6.6.6.6.6.6.6.5.4.2.1.1.1.1.1.1.1.1.1.1.1.1.m1.1.1.cmml" xref="S4.F2.sf1.1.pic1.6.6.6.6.6.6.6.6.6.6.6.6.6.5.4.2.1.1.1.1.1.1.1.1.1.1.1.1.m1.1.1">𝑑</ci></annotation-xml> <annotation encoding="application/x-tex" id="S4.F2.sf1.1.pic1.6.6.6.6.6.6.6.6.6.6.6.6.6.5.4.2.1.1.1.1.1.1.1.1.1.1.1.1.m1.1c">d</annotation></semantics></math></span></foreignObject></g> <g fill="#E6E6FF"><path d="M 209.08 -482.58 L 106.71 -482.58 C 102.37 -482.58 98.84 -486.1 98.84 -490.45 L 98.84 -493.54 C 98.84 -497.88 102.37 -501.41 106.71 -501.41 L 209.08 -501.41 C 213.43 -501.41 216.95 -497.88 216.95 -493.54 L 216.95 -490.45 C 216.95 -486.1 213.43 -482.58 209.08 -482.58 Z M 98.84 -501.41"></path></g><g transform="matrix(1.0 0.0 0.0 1.0 122.92 -496.8)" fill="#000000" stroke="#000000"><foreignObject width="69.57" height="9.61" transform="matrix(1 0 0 -1 0 16.6)" overflow="visible"><span id="S4.F2.sf1.1.pic1.28.28.28.1.1">Modulation</span></foreignObject></g> <g fill="#E6E6FF"><path d="M 209.08 -509.84 L 106.71 -509.84 C 102.37 -509.84 98.84 -513.36 98.84 -517.71 L 98.84 -520.64 C 98.84 -524.99 102.37 -528.52 106.71 -528.52 L 209.08 -528.52 C 213.43 -528.52 216.95 -524.99 216.95 -520.64 L 216.95 -517.71 C 216.95 -513.36 213.43 -509.84 209.08 -509.84 Z M 98.84 -528.52"></path></g><g transform="matrix(1.0 0.0 0.0 1.0 138.56 -523.9)" fill="#000000" stroke="#000000"><foreignObject width="38.67" height="9.46" transform="matrix(1 0 0 -1 0 16.6)" overflow="visible"><span id="S4.F2.sf1.1.pic1.29.29.29.1.1">Linear</span></foreignObject></g> <g fill="#E6FFE6"><path d="M 209.08 -536.94 L 106.71 -536.94 C 102.37 -536.94 98.84 -540.47 98.84 -544.82 L 98.84 -550.59 C 98.84 -554.94 102.37 -558.47 106.71 -558.47 L 209.08 -558.47 C 213.43 -558.47 216.95 -554.94 216.95 -550.59 L 216.95 -544.82 C 216.95 -540.47 213.43 -536.94 209.08 -536.94 Z M 98.84 -558.47"></path></g><g transform="matrix(1.0 0.0 0.0 1.0 122.92 -551.16)" fill="#000000" stroke="#000000"><foreignObject width="70.34" height="12.3" transform="matrix(1 0 0 -1 0 16.6)" overflow="visible"><span id="S4.F2.sf1.1.pic1.30.30.30.1.1">Unpatching</span></foreignObject></g> <g fill="#FF9DD7"><path d="M 209.08 -578.71 L 106.71 -578.71 C 102.37 -578.71 98.84 -582.23 98.84 -586.58 L 98.84 -592.2 C 98.84 -596.55 102.37 -600.07 106.71 -600.07 L 209.08 -600.07 C 213.43 -600.07 216.95 -596.55 216.95 -592.2 L 216.95 -586.58 C 216.95 -582.23 213.43 -578.71 209.08 -578.71 Z M 98.84 -600.07"></path></g><g transform="matrix(1.0 0.0 0.0 1.0 135.6 -592.77)" fill="#000000" stroke="#000000"><foreignObject width="44.59" height="12.15" transform="matrix(1 0 0 -1 0 16.6)" overflow="visible"><span id="S4.F2.sf1.1.pic1.31.31.31.1.1">Output</span></foreignObject></g> <path d="M -59.06 -133 M -59.06 -127.47 C -57.39 -124.15 -53.52 -121.93 -47.99 -121.93 L -11.07 -121.93 C -5.53 -121.93 -1.66 -119.72 0 -116.4 C 1.66 -119.72 5.53 -121.93 11.07 -121.93 L 47.99 -121.93 C 53.52 -121.93 57.39 -124.15 59.06 -127.47" style="fill:none"></path><g fill="#FFFFFF"><path d="M -48.47 -115.43 h 96.94 v 19.99 h -96.94 Z" style="stroke:none"></path></g><g transform="matrix(1.0 0.0 0.0 1.0 -43.86 -109.67)" fill="#000000" stroke="#000000"><foreignObject width="49.2" height="10.07" transform="matrix(1 0 0 -1 0 16.6)" overflow="visible"><math xmlns="http://www.w3.org/1998/Math/MathML" display="inline" data-latex="77+77"><semantics id="S4.F2.sf1.1.pic1.7.7.7.7.7.7.7.7.7.7.1.1.1.1.1.1.1.1.1.1.1.1.m1.1a"><mrow id="S4.F2.sf1.1.pic1.7.7.7.7.7.7.7.7.7.7.1.1.1.1.1.1.1.1.1.1.1.1.m1.1.1" xref="S4.F2.sf1.1.pic1.7.7.7.7.7.7.7.7.7.7.1.1.1.1.1.1.1.1.1.1.1.1.m1.1.1.cmml"><mn id="S4.F2.sf1.1.pic1.7.7.7.7.7.7.7.7.7.7.1.1.1.1.1.1.1.1.1.1.1.1.m1.1.1.2" xref="S4.F2.sf1.1.pic1.7.7.7.7.7.7.7.7.7.7.1.1.1.1.1.1.1.1.1.1.1.1.m1.1.1.2.cmml">77</mn> <mo id="S4.F2.sf1.1.pic1.7.7.7.7.7.7.7.7.7.7.1.1.1.1.1.1.1.1.1.1.1.1.m1.1.1.1" xref="S4.F2.sf1.1.pic1.7.7.7.7.7.7.7.7.7.7.1.1.1.1.1.1.1.1.1.1.1.1.m1.1.1.1.cmml">+</mo> <mn id="S4.F2.sf1.1.pic1.7.7.7.7.7.7.7.7.7.7.1.1.1.1.1.1.1.1.1.1.1.1.m1.1.1.3" xref="S4.F2.sf1.1.pic1.7.7.7.7.7.7.7.7.7.7.1.1.1.1.1.1.1.1.1.1.1.1.m1.1.1.3.cmml">77</mn></mrow> <annotation-xml encoding="MathML-Content" id="S4.F2.sf1.1.pic1.7.7.7.7.7.7.7.7.7.7.1.1.1.1.1.1.1.1.1.1.1.1.m1.1b"><apply id="S4.F2.sf1.1.pic1.7.7.7.7.7.7.7.7.7.7.1.1.1.1.1.1.1.1.1.1.1.1.m1.1.1.cmml" xref="S4.F2.sf1.1.pic1.7.7.7.7.7.7.7.7.7.7.1.1.1.1.1.1.1.1.1.1.1.1.m1.1.1"><cn type="integer" id="S4.F2.sf1.1.pic1.7.7.7.7.7.7.7.7.7.7.1.1.1.1.1.1.1.1.1.1.1.1.m1.1.1.2.cmml" xref="S4.F2.sf1.1.pic1.7.7.7.7.7.7.7.7.7.7.1.1.1.1.1.1.1.1.1.1.1.1.m1.1.1.2">77</cn> <cn type="integer" id="S4.F2.sf1.1.pic1.7.7.7.7.7.7.7.7.7.7.1.1.1.1.1.1.1.1.1.1.1.1.m1.1.1.3.cmml" xref="S4.F2.sf1.1.pic1.7.7.7.7.7.7.7.7.7.7.1.1.1.1.1.1.1.1.1.1.1.1.m1.1.1.3">77</cn></apply></annotation-xml> <annotation encoding="application/x-tex" id="S4.F2.sf1.1.pic1.7.7.7.7.7.7.7.7.7.7.1.1.1.1.1.1.1.1.1.1.1.1.m1.1c">77+77</annotation></semantics></math> <span id="S4.F2.sf1.1.pic1.32.32.32.2.1">tokens</span></foreignObject></g> <path d="M 59.06 -133 M 64.59 -133 C 67.91 -134.66 70.12 -138.54 70.12 -144.07 L 70.12 -151.46 C 70.12 -156.99 72.34 -160.87 75.66 -162.53 C 72.34 -164.19 70.12 -168.06 70.12 -173.6 L 70.12 -180.99 C 70.12 -186.52 67.91 -190.4 64.59 -192.06" style="fill:none"></path><g transform="matrix(1.0 0.0 0.0 1.0 75.56 -177.86)" fill="#000000" stroke="#000000"><g transform="matrix(1 0 0 -1 0 25.865)"><g transform="matrix(1 0 0 1 0 21.06)"><g transform="matrix(1 0 0 -1 9.03 0)"><g transform="matrix(1 0 0 -1 0 16.6)"><g transform="matrix(1 0 0 1 0 9.46)"><g transform="matrix(1 0 0 -1 0 0)"><foreignObject width="23.45" height="12.15" transform="matrix(1 0 0 -1 0 16.6)" overflow="visible">pt</foreignObject></g></g> <g transform="matrix(1 0 0 1 0 21.07)"><g transform="matrix(1 0 0 -1 0 0)"><foreignObject width="27.67" height="8.92" transform="matrix(1 0 0 -1 0 16.6)" overflow="visible"><math xmlns="http://www.w3.org/1998/Math/MathML" display="inline" data-latex="4096"><semantics id="S4.F2.sf1.1.pic1.8.8.8.8.8.8.8.8.8.8.2.2.1.1.1.1.1.1.1.1.1.1.1.1.1.1.1.1.1.1.m1.1a"><mn id="S4.F2.sf1.1.pic1.8.8.8.8.8.8.8.8.8.8.2.2.1.1.1.1.1.1.1.1.1.1.1.1.1.1.1.1.1.1.m1.1.1" xref="S4.F2.sf1.1.pic1.8.8.8.8.8.8.8.8.8.8.2.2.1.1.1.1.1.1.1.1.1.1.1.1.1.1.1.1.1.1.m1.1.1.cmml">4096</mn> <annotation-xml encoding="MathML-Content" id="S4.F2.sf1.1.pic1.8.8.8.8.8.8.8.8.8.8.2.2.1.1.1.1.1.1.1.1.1.1.1.1.1.1.1.1.1.1.m1.1b"><cn type="integer" id="S4.F2.sf1.1.pic1.8.8.8.8.8.8.8.8.8.8.2.2.1.1.1.1.1.1.1.1.1.1.1.1.1.1.1.1.1.1.m1.1.1.cmml" xref="S4.F2.sf1.1.pic1.8.8.8.8.8.8.8.8.8.8.2.2.1.1.1.1.1.1.1.1.1.1.1.1.1.1.1.1.1.1.m1.1.1">4096</cn></annotation-xml> <annotation encoding="application/x-tex" id="S4.F2.sf1.1.pic1.8.8.8.8.8.8.8.8.8.8.2.2.1.1.1.1.1.1.1.1.1.1.1.1.1.1.1.1.1.1.m1.1c">4096</annotation></semantics></math></foreignObject></g></g></g></g></g> <g transform="matrix(1 0 0 1 0 30.67)"><g transform="matrix(1 0 0 -1 0 0)"><text transform="matrix(1 0 0 -1 0 0)">channel</text></g></g></g></g></g></svg>
